<svg xmlns="http://www.w3.org/2000/svg" viewBox="0 0 19 19"><path d="M16.988 11.817l-5.916 5.492c-.46.427-1.058.661-1.685.661-.343 0-.675-.069-.989-.206-.902-.393-1.485-1.284-1.485-2.268v-3.193h.965c.552 0 1.065-.166 1.499-.443l.02 2.745c.001.159.095.301.24.364.146.063.314.034.431-.074l5.253-4.875c.144-.134.227-.324.227-.521s-.084-.386-.227-.52l-5.25-4.872c-.117-.11-.286-.139-.431-.075-.146.062-.24.206-.24.365l-.009 2.748c-.437-.283-.955-.451-1.514-.451h-.964V3.501c0-.985.583-1.875 1.485-2.269.891-.388 1.963-.205 2.674.455l5.916 5.492C17.631 7.775 18 8.62 18 9.497c0 .878-.369 1.723-1.012 2.32zM9.104 9.498c0 .677-.55 1.227-1.227 1.227H6.279v1.598c0 .677-.55 1.227-1.227 1.227-.678 0-1.227-.55-1.227-1.227v-1.598H2.226c-.677 0-1.226-.55-1.226-1.227 0-.678.549-1.227 1.226-1.227h1.599V6.673c0-.678.549-1.227 1.227-1.227.677 0 1.227.549 1.227 1.227v1.598h1.598c.677 0 1.227.549 1.227 1.227z"/></svg>