<svg xmlns="http://www.w3.org/2000/svg" viewBox="0 0 18 18"><path d="M4.99 4.396V1.954c0-.527.428-.954.955-.954.527 0 .955.427.955.954v2.442c0 .528-.428.954-.954.954-.528.001-.956-.426-.956-.954zm7.065.955c.528 0 .955-.427.955-.954V1.954c0-.527-.428-.954-.955-.954-.527 0-.955.427-.955.954v2.442c0 .528.428.955.955.955zm4.201-3.015h-1.594c-.422 0-.764.342-.764.764s.343.763.764.763h.83v11.609H2.508V3.864h.83c.423 0 .764-.342.764-.763 0-.423-.342-.764-.764-.764H1.744c-.422 0-.763.412-.763.833v13.067c0 .421.342.763.763.763h14.511c.422 0 .763-.342.763-.763V3.169c.001-.421-.341-.833-.762-.833zM8.37 3.864h1.26c.422 0 .763-.342.763-.763 0-.423-.342-.764-.763-.764H8.37c-.422 0-.763.342-.763.764 0 .421.342.763.763.763z"/></svg>