<svg xmlns="http://www.w3.org/2000/svg" viewBox="0 0 18 18"><path d="M16.256 17H1.744c-.422 0-.763-.342-.763-.763V3.169c0-.422.342-.833.763-.833h1.594c.423 0 .764.342.764.764s-.342.763-.764.763h-.83v11.609h12.984V3.864h-.83c-.422 0-.764-.342-.764-.763 0-.423.343-.764.764-.764h1.594c.422 0 .763.412.763.833v13.067c0 .421-.342.763-.763.763zM12.055 5.351c-.527 0-.954-.427-.954-.954V1.954c-.001-.527.427-.954.954-.954.528 0 .955.427.955.954v2.442c0 .528-.428.955-.955.955zM9.63 3.864H8.37c-.422 0-.763-.342-.763-.763 0-.423.342-.764.763-.764h1.26c.422 0 .763.342.763.764 0 .421-.342.763-.763.763zM9 7.001c1.656 0 2.998 1.342 2.998 2.998S10.656 12.997 9 12.997s-2.998-1.342-2.998-2.998S7.344 7.001 9 7.001zm-3.055-1.65c-.528 0-.955-.427-.955-.954V1.954c0-.527.428-.954.955-.954.527 0 .955.427.955.954v2.442c0 .528-.428.955-.955.955z"/></svg>