<svg xmlns="http://www.w3.org/2000/svg" viewBox="0 0 22 22"><path d="M14.244 6.543c.688.775 1.013 1.857.879 2.969-.25 2.087-1.777 2.831-3.135 2.831-.057 0-.118.002-.118.004v.527c0 .48-.389.87-.87.87-.48 0-.87-.389-.87-.87v-.701c0-.716.299-1.569 1.858-1.569.84 0 1.29-.437 1.394-1.3.035-.292.062-1.034-.446-1.606-.412-.466-1.083-.702-1.992-.702-1.968 0-2.025 1.271-2.025 1.416 0 .48-.389.87-.87.87-.479 0-.869-.389-.869-.87 0-.878.676-3.156 3.763-3.156 1.78 0 2.78.699 3.301 1.287zm-3.3 7.94c-.287 0-.566.117-.77.319-.202.202-.317.482-.317.768 0 .286.115.568.317.77.204.202.482.319.77.319.286 0 .568-.117.77-.319.202-.202.317-.483.317-.77 0-.285-.115-.566-.317-.768-.203-.202-.484-.319-.77-.319zM21 11c0 5.514-4.486 10-10 10S1 16.514 1 11 5.486 1 11 1s10 4.486 10 10zm-1.739 0c0-4.555-3.706-8.26-8.261-8.26S2.74 6.445 2.74 11s3.705 8.261 8.26 8.261 8.261-3.706 8.261-8.261z"/></svg>