<svg xmlns="http://www.w3.org/2000/svg" viewBox="0 0 22 22"><path d="M14.97 3.973l1.787-2.723c.229-.349.131-.818-.218-1.047-.349-.23-.819-.132-1.048.217l-1.878 2.864c-.813-.31-1.692-.489-2.613-.489s-1.8.179-2.612.489L6.51.421c-.229-.35-.699-.447-1.049-.218-.349.229-.447.698-.217 1.047L7.03 3.973C5.05 5.26 3.738 7.474 3.738 9.989v5.368c0 1.653 1.355 2.998 3.021 2.998H7.86v2.81c0 .418.339.756.757.756s.756-.338.756-.756v-2.81h3.253v2.81c0 .418.339.756.757.756s.757-.338.757-.756v-2.81h1.101c1.666 0 3.021-1.345 3.021-2.998V9.989c0-2.515-1.312-4.729-3.292-6.016zm1.778 11.384c0 .818-.677 1.483-1.507 1.483H6.758c-.831 0-1.507-.665-1.507-1.483v-2.781h11.497v2.781zm0-4.295H5.252V9.989C5.252 6.857 7.83 4.31 11 4.31s5.748 2.547 5.748 5.679v1.073zm-14.991-.036c-.418 0-.757.339-.757.757v4.825c0 .418.339.756.757.756s.756-.338.756-.756v-4.825c.001-.418-.338-.757-.756-.757zm18.486 0c-.418 0-.756.338-.756.757v4.825c0 .418.338.756.756.756s.757-.338.757-.756v-4.825c0-.418-.339-.757-.757-.757zM9.009 7.158c-.531 0-.963.426-.963.952 0 .527.432.953.963.953.532 0 .963-.426.963-.953 0-.526-.431-.952-.963-.952zm3.982 0c-.532 0-.964.426-.964.952 0 .527.432.953.964.953s.963-.426.963-.953c0-.526-.431-.952-.963-.952z"/></svg>