<svg xmlns="http://www.w3.org/2000/svg" viewBox="0 0 26 24"><path d="M4.981 5.506c0-.586.475-1.061 1.061-1.061h13.917c.586 0 1.061.475 1.061 1.061 0 .585-.475 1.06-1.061 1.06H6.042c-.586 0-1.061-.475-1.061-1.06zm2.8-2.651H18.22c.513 0 .929-.415.929-.928S18.732 1 18.219 1H7.781c-.513 0-.928.415-.928.928s.415.927.928.927zm17.412 3.873V9.621c-.001.105-.016.206-.045.301l-3.394 12.3c-.127.46-.545.778-1.022.778H5.211c-.478 0-.897-.32-1.023-.783L.851 9.918c-.015-.052-.028-.107-.035-.162-.007-.055-.009-.11-.009-.164V6.728c0-.585.475-1.06 1.061-1.06.585 0 1.06.475 1.06 1.06v1.959h20.145V6.728c0-.585.474-1.06 1.06-1.06.585 0 1.06.475 1.06 1.06zm-2.453 4.079H3.254L6.022 20.88H19.925l2.815-10.073zM9.872 16.109h6.257c.586 0 1.061-.475 1.061-1.061s-.475-1.06-1.061-1.06H9.872c-.586 0-1.061.474-1.061 1.06s.475 1.061 1.061 1.061z"/></svg>