<svg xmlns="http://www.w3.org/2000/svg" width="500" height="400" viewBox="0 0 10 8"><path fill="#00335E" d="M5.005,7.556 C4.536,8.094 3.725,8.162 3.171,7.712 L0.329,5.399 C0.135,5.241 0.011,5.011 -0.015,4.761 C-0.041,4.511 0.034,4.261 0.193,4.066 L0.697,3.447 C1.027,3.041 1.624,2.980 2.030,3.310 L3.565,4.559 C3.722,4.687 3.952,4.668 4.085,4.515 L7.742,0.330 C7.908,0.140 8.141,0.024 8.392,0.008 C8.643,-0.009 8.890,0.074 9.079,0.240 L9.681,0.765 C10.075,1.110 10.115,1.708 9.771,2.102 L5.005,7.556 Z"/></svg>