<svg xmlns="http://www.w3.org/2000/svg" viewBox="0 0 24 24"><path d="M12.012 23c-.689 0-1.385-.066-2.067-.196-2.886-.549-5.385-2.189-7.038-4.62-1.653-2.428-2.259-5.355-1.71-8.242.184-.964.497-1.9.931-2.785C3.99 3.402 7.854 1 11.99 1c.689 0 1.385.066 2.068.196 2.885.55 5.384 2.19 7.037 4.619.025.037.164.268.164.268 1.521 2.369 2.072 5.206 1.546 7.975C21.819 19.239 17.28 23 12.012 23zm2.873-7.999c.534 2.127-.332 4.702-2.079 6.354 4.147-.354 7.637-3.462 8.424-7.599.442-2.318-.005-4.7-1.26-6.713-.566-.34-1.279-.52-2.066-.52-.373 0-.756.04-1.141.12-1.213.252-2.286.847-2.991 1.65.669.315 1.237.799 1.655 1.413.623.917.852 2.021.645 3.11-.161.832-.57 1.584-1.187 2.185zM2.764 10.294c-.452 2.448.069 4.928 1.471 6.988 1.37 2.014 3.438 3.4 5.829 3.903 2.006-.62 3.566-3.104 3.35-5.259-.467.175-.943.264-1.417.264-.26 0-.522-.025-.78-.074-1.255-.239-2.337-1.063-2.919-2.214-2.164-.21-4.426-1.705-5.534-3.608zm9.226-.8c-1.218 0-2.268.871-2.497 2.07-.262 1.378.646 2.713 2.024 2.975.159.031.32.046.48.046 1.219 0 2.268-.871 2.497-2.069.127-.668-.014-1.346-.396-1.908-.383-.562-.961-.941-1.629-1.068-.158-.031-.319-.046-.479-.046zM3.651 7.709c-.009 1.725 1.791 3.982 4.213 4.503-.02-.342-.002-.655.054-.949.373-1.954 2.085-3.374 4.073-3.374.024 0 .048.002.072.004.879-1.381 2.512-2.434 4.374-2.82.485-.101.975-.152 1.456-.152.097 0 .195.003.293.007-1.252-1.1-2.77-1.84-4.427-2.156-.584-.111-1.179-.167-1.767-.167-3.532 0-6.723 1.954-8.341 5.104z"/></svg>