<svg xmlns="http://www.w3.org/2000/svg" viewBox="0 0 12 18"><path d="M10.077 8.937c-.291-.275-.639-.507-1.044-.695-.404-.19-.849-.349-1.333-.478l-1.926-.518c-.4-.107-.707-.228-.923-.364-.216-.134-.324-.331-.324-.59 0-.27.125-.467.374-.591.247-.124.527-.186.84-.186.464 0 .828.075 1.092.226.265.152.494.316.688.495.193.178.386.339.574.484.188.147.439.219.752.219.463 0 .849-.132 1.156-.397.308-.263.462-.623.462-1.076 0-.486-.157-.89-.47-1.213-.313-.324-.709-.578-1.189-.76-.479-.184-1.01-.313-1.592-.388-.025-.004-.047-.005-.071-.008V2.043c0-.724-.586-1.311-1.31-1.311-.723 0-1.311.587-1.311 1.311v1.014c-.389.053-.745.134-1.062.25-.571.21-1.041.491-1.407.841-.367.35-.633.753-.801 1.206C1.085 5.806 1 6.275 1 6.761c0 .819.246 1.501.737 2.047.49.545 1.206.953 2.144 1.22l2.475.713c.346.097.6.206.769.323.166.119.251.297.251.534 0 .356-.146.607-.437.752-.291.146-.625.218-1.003.218-.453 0-.819-.088-1.099-.267-.28-.179-.528-.372-.745-.583-.216-.209-.431-.404-.648-.582-.215-.178-.49-.267-.824-.267-.454 0-.83.139-1.125.42-.297.281-.445.648-.445 1.1 0 .259.084.554.251.882.166.329.446.634.841.914.394.28.917.517 1.57.712.245.072.522.127.811.172v.886c0 .724.588 1.311 1.311 1.311.724 0 1.31-.587 1.31-1.311v-.835c.276-.037.547-.089.815-.158.583-.152 1.097-.389 1.545-.712.447-.324.809-.736 1.084-1.239.275-.5.413-1.096.413-1.787 0-.507-.082-.946-.244-1.318s-.388-.694-.68-.969z"/></svg>