<svg xmlns="http://www.w3.org/2000/svg" viewBox="0 0 18 18"><path d="M5.849 3.294V1.662C5.849 1.021 5.328.5 4.687.5s-1.16.521-1.16 1.162v1.632C1.789 3.799.513 5.402.513 7.301c0 2.301 1.873 4.173 4.174 4.173 2.302 0 4.174-1.872 4.174-4.173.001-1.899-1.274-3.502-3.012-4.007zM4.688 9.152c-1.02 0-1.851-.831-1.851-1.851 0-1.021.831-1.852 1.851-1.852 1.021 0 1.851.831 1.851 1.852 0 1.02-.83 1.851-1.851 1.851zM3.527 12.28v4.058c0 .641.52 1.162 1.161 1.162s1.162-.521 1.162-1.162V12.28c-.374.088-.761.138-1.162.138-.4 0-.788-.05-1.161-.138zm10.947-5.918v-4.7c0-.641-.52-1.162-1.161-1.162s-1.162.521-1.162 1.162v4.702c.374-.088.761-.14 1.162-.14.4 0 .788.051 1.161.138zm-1.161.806c-2.302 0-4.174 1.872-4.174 4.174 0 1.898 1.275 3.502 3.012 4.006v.99c0 .641.521 1.162 1.162 1.162.641 0 1.161-.521 1.161-1.162v-.99c1.737-.505 3.012-2.108 3.012-4.006.001-2.302-1.872-4.174-4.173-4.174zm0 6.025c-1.022 0-1.852-.83-1.852-1.851s.83-1.851 1.852-1.851c1.02 0 1.85.83 1.85 1.851s-.83 1.851-1.85 1.851z"/></svg>