<svg xmlns="http://www.w3.org/2000/svg" viewBox="0 0 24 24"><path d="M12 16.614c-2.542 0-4.61-2.068-4.61-4.61s2.068-4.61 4.61-4.61 4.61 2.068 4.61 4.61-2.068 4.61-4.61 4.61zm0-7.528c-1.608 0-2.918 1.308-2.918 2.918 0 1.608 1.309 2.918 2.918 2.918s2.918-1.309 2.918-2.918c0-1.609-1.31-2.918-2.918-2.918zM12 23h-.13c-.832 0-1.561-.092-1.592-.096-.379-.049-.678-.345-.731-.724l-.236-1.712c-.524-.166-1.032-.381-1.517-.643l-1.352 1.016c-.305.229-.725.226-1.026-.007-.025-.019-.607-.469-1.194-1.057l-.092-.092c-.588-.588-1.038-1.169-1.057-1.193-.234-.302-.236-.724-.005-1.029l1.045-1.379c-.254-.488-.46-.999-.619-1.525l-1.677-.238c-.377-.053-.673-.352-.721-.73C1.092 13.56 1 12.831 1 12v-.13c0-.832.092-1.561.096-1.592.048-.38.345-.679.724-.731l1.716-.235c.166-.523.381-1.03.642-1.514L3.157 6.44c-.228-.304-.225-.724.007-1.025.019-.025.47-.607 1.058-1.194l.092-.092c.588-.588 1.168-1.038 1.193-1.057.302-.234.725-.236 1.029-.005l1.382 1.048c.488-.252.996-.459 1.522-.617l.238-1.682c.054-.377.352-.673.731-.721C10.44 1.092 11.169 1 12 1h.13c.831 0 1.561.092 1.591.096.379.048.68.345.731.725l.236 1.718c.522.165 1.028.379 1.512.64l1.358-1.021c.304-.229.725-.226 1.026.007.025.019.606.47 1.193 1.058l.092.092c.588.588 1.039 1.169 1.058 1.193.233.303.235.725.004 1.029l-1.047 1.38c.253.487.46.997.619 1.522l1.68.239c.377.054.672.352.721.731.004.031.096.76.096 1.591v.13c0 .831-.092 1.561-.096 1.591-.049.379-.345.68-.725.732l-1.713.234c-.166.523-.381 1.031-.643 1.515l1.018 1.356c.229.305.226.725-.007 1.026-.019.024-.469.606-1.057 1.193l-.092.092c-.588.588-1.169 1.039-1.193 1.058-.303.233-.725.235-1.03.004l-1.382-1.049c-.487.252-.996.457-1.52.616l-.239 1.685c-.053.377-.352.673-.73.721-.031.004-.76.096-1.591.096zm-.869-1.718c.218.014.473.025.739.025H12c.266 0 .522-.011.74-.025l.224-1.576c.049-.347.307-.628.649-.707.742-.17 1.449-.456 2.102-.851.192-.116.423-.15.642-.096.125.031.239.089.336.17l1.258.955c.163-.144.352-.317.538-.503l.092-.092c.188-.188.362-.377.506-.542l-.954-1.269c-.21-.28-.226-.662-.039-.958.395-.631.689-1.314.872-2.032.061-.359.347-.644.717-.695l1.599-.219c.014-.217.025-.472.025-.737V12c0-.266-.011-.522-.025-.741l-1.571-.224c-.347-.049-.628-.306-.706-.648-.168-.734-.451-1.433-.839-2.08-.037-.055-.067-.116-.089-.18-.094-.268-.048-.566.123-.792l.977-1.286c-.144-.164-.317-.352-.503-.539l-.092-.092c-.189-.188-.378-.361-.541-.505l-1.273.957c-.3.226-.711.224-1.008.007-.633-.389-1.318-.677-2.037-.853-.336-.083-.59-.363-.637-.707l-.218-1.599c-.218-.015-.473-.026-.738-.026H12c-.265 0-.522.012-.741.026l-.223 1.576c-.053.372-.344.662-.709.718-.72.171-1.407.452-2.042.837-.195.118-.43.152-.652.094-.124-.032-.237-.092-.333-.173l-1.25-.948c-.165.144-.353.317-.54.504l-.092.092c-.188.188-.361.377-.505.542l.957 1.273c.207.275.226.65.048.945-.016.025-.032.049-.05.072-.386.63-.672 1.311-.848 2.027-.083.337-.363.59-.707.636l-1.596.22c-.014.217-.026.472-.026.738V12c0 .265.012.521.026.74l1.576.224c.373.052.667.346.719.72.002.01.003.021.004.031.172.706.45 1.379.828 2.004.129.212.157.47.079.706-.035.104-.089.198-.157.279l-.945 1.246c.144.164.317.352.504.539l.092.092c.188.189.377.362.541.506l1.273-.958c.321-.24.758-.219 1.052.029.621.374 1.289.653 1.991.825.336.083.589.362.637.706l.22 1.593z"/></svg>