<svg xmlns="http://www.w3.org/2000/svg" viewBox="0 0 32 28"><path d="M21.015 8.631H3.637C2.183 8.631 1 9.814 1 11.268v12.889c0 1.455 1.183 2.638 2.637 2.638h17.378c1.454 0 2.637-1.183 2.637-2.638V11.268c0-1.454-1.183-2.637-2.637-2.637zm.738 15.526c0 .407-.331.739-.738.739H3.637c-.407 0-.738-.332-.738-.739v-5.034l3.805-2.921c.295-.225.706-.247 1.022-.055l5.467 3.33c.986.601 2.22.542 3.144-.153l.965-.724c.322-.242.771-.241 1.092.004l3.36 2.56v2.993zm0-5.38l-2.209-1.683c-.994-.757-2.386-.762-3.384-.011l-.965.724c-.298.223-.697.243-1.015.049l-5.466-3.33c-.982-.598-2.255-.53-3.166.171l-2.65 2.032v-5.461c0-.407.331-.738.738-.738h17.378c.407 0 .738.331.738.738v7.509zm7.292-12.983L12.26 1.297c-.681-.184-1.391-.089-2.002.263-.61.352-1.046.921-1.228 1.602l-.657 2.452c-.136.506.164 1.026.671 1.162.507.137 1.026-.165 1.162-.671l.657-2.452c.052-.191.174-.35.344-.449.171-.098.369-.125.561-.073l16.784 4.497c.394.106.628.512.523.905l-3.773 14.081c-.136.506.165 1.027.671 1.162.082.023.166.033.247.033.419 0 .802-.28.916-.704L30.91 9.024c.376-1.404-.461-2.853-1.865-3.23zm-14.542 6.511c-.968 0-1.752.785-1.752 1.753s.784 1.752 1.752 1.752 1.753-.784 1.753-1.752-.786-1.753-1.753-1.753z"/></svg>