<svg xmlns="http://www.w3.org/2000/svg" viewBox="0 0 25 22"><path d="M15.908 5.714c-.308-.308-.809-.308-1.117 0-.309.309-.309.809 0 1.117l2.566 2.566-2.566 2.566c-.309.308-.309.809 0 1.117.154.154.357.231.559.231.202 0 .404-.077.558-.231l3.125-3.124c.148-.149.231-.349.231-.559s-.083-.411-.231-.559l-3.125-3.124zm-5.549 0c-.309-.308-.809-.308-1.117 0L6.118 8.839c-.148.148-.232.349-.232.559s.083.41.231.559l3.125 3.124c.154.154.356.231.558.231s.405-.077.559-.231c.309-.308.309-.809 0-1.117L7.793 9.398l2.566-2.566c.309-.309.309-.809 0-1.118zm2.886-.255c-.429-.082-.842.201-.922.63l-1.182 6.287c-.08.428.202.841.63.921.049.01.099.014.147.014.372 0 .704-.264.775-.643l1.182-6.287c.081-.429-.202-.841-.63-.922zm5.626 13.962H6.128c-.436 0-.789.354-.789.79 0 .436.353.789.789.789H18.87c.436 0 .79-.353.79-.789.001-.436-.353-.79-.789-.79zM21.73 1H3.269C1.876 1 .744 2.133.744 3.526v11.706c0 1.392 1.132 2.525 2.525 2.525H21.73c1.393 0 2.526-1.133 2.526-2.525V3.526C24.256 2.133 23.123 1 21.73 1zm.947 14.232c0 .521-.425.946-.947.946H3.269c-.521 0-.946-.424-.946-.946V3.526c0-.522.424-.947.946-.947H21.73c.521 0 .947.424.947.947v11.706z"/></svg>