<svg xmlns="http://www.w3.org/2000/svg" viewBox="0 0 50 56"><path d="M43.583 1H6.417C3.307 1 .776 3.53.776 6.64v27.568c0 3.111 2.531 5.641 5.641 5.641h16.094c.253 0 .458.206.458.458v7.607c0 .174-.099.333-.255.411-.156.077-.343.059-.482-.048l-6.5-5.002c-.889-.685-2.163-.519-2.848.37-.684.888-.518 2.163.37 2.848l10.506 8.086c.367.281.803.421 1.24.421.436 0 .873-.14 1.239-.421l10.505-8.086c.889-.684 1.055-1.959.371-2.848-.685-.888-1.959-1.056-2.849-.37l-6.499 5.002c-.138.107-.325.125-.482.048-.156-.078-.255-.237-.255-.411v-18.28c0-1.122-.91-2.03-2.031-2.03-1.122 0-2.031.909-2.031 2.03v5.696c0 .253-.205.458-.458.458H6.417c-.871 0-1.58-.709-1.58-1.581V23.44l8.138-6.246c.63-.484 1.508-.531 2.185-.118L26.852 24.2c2.11 1.286 4.75 1.157 6.724-.327l2.063-1.549c.689-.52 1.649-.516 2.336.007l7.187 5.476v6.4c0 .872-.709 1.581-1.58 1.581H32.865c-1.122 0-2.031.909-2.031 2.03s.91 2.03 2.031 2.03h10.718c3.111 0 5.641-2.53 5.641-5.641V6.64c0-3.11-2.53-5.64-5.641-5.64zm1.58 21.701L40.437 19.1c-2.125-1.619-5.101-1.628-7.238-.023l-2.062 1.55c-.637.479-1.49.521-2.17.106l-11.692-7.125c-2.102-1.279-4.822-1.133-6.771.364L4.837 18.32V6.64c0-.87.709-1.58 1.58-1.58h37.166c.871 0 1.58.71 1.58 1.58v16.061zM29.656 8.859c-2.069 0-3.747 1.678-3.747 3.747s1.678 3.747 3.747 3.747 3.746-1.678 3.746-3.747-1.677-3.747-3.746-3.747z"/></svg>