<svg xmlns="http://www.w3.org/2000/svg" viewBox="0 0 32 30"><path d="M26.89 3.591h-9.635c-.169 0-.305-.138-.305-.306V1.604c0-.524-.425-.949-.949-.949s-.949.425-.949.949v1.681c0 .169-.137.306-.306.306H5.111C2.844 3.591 1 5.434 1 7.701v12.412c0 2.267 1.844 4.11 4.111 4.11h1.104c.084 0 .164.042.211.111.048.069.058.158.029.236l-1.31 3.493c-.184.49.064 1.037.554 1.222.11.041.222.06.333.06.384 0 .746-.235.888-.616l1.433-3.818c.156-.413.55-.688.992-.688h13.26c.471 0 .893.292 1.06.735l1.415 3.772c.143.381.504.616.888.616.111 0 .223-.02.333-.06.49-.184.739-.732.554-1.222l-1.311-3.493c-.029-.078-.018-.167.03-.236.048-.069.127-.111.211-.111h1.104c2.267 0 4.11-1.843 4.11-4.11V7.701c.001-2.267-1.842-4.11-4.109-4.11zm2.213 16.522c0 1.221-.992 2.213-2.213 2.213H5.111c-1.221 0-2.213-.992-2.213-2.213V7.701c0-1.221.992-2.213 2.213-2.213H26.89c1.221 0 2.213.992 2.213 2.213v12.412zM26.401 8.378c-.465-.238-1.038-.055-1.277.411l-4.387 8.556L9.97 12.328c-.462-.214-1.012-.027-1.245.427l-2.763 5.403c-.239.467-.055 1.038.412 1.277.138.07.286.104.431.104.344 0 .677-.188.845-.517l2.348-4.589 10.766 5.016c.462.216 1.012.028 1.245-.426l4.804-9.369c.239-.465.054-1.036-.412-1.276z"/></svg>