<svg xmlns="http://www.w3.org/2000/svg" viewBox="0 0 18 18"><path d="M16.929 1.385c-.127-.237-.375-.385-.644-.385H1.715c-.269 0-.517.148-.644.385-.126.239-.073.526.077.749l5.67 8.325v5.507c0 .57.388 1.033.959 1.033h2.445c.57 0 .959-.464.959-1.033V10.46l5.67-8.325c.151-.224.204-.511.078-.75zM9.888 9.83c-.081.12-.161.262-.161.407v5.308H8.272v-5.308c0-.145-.079-.287-.16-.407L6.384 7.303c.358-.111.803-.209 1.278-.202.562.007.944.107 1.355.213.429.111.872.226 1.485.233.37.004.687-.018.986-.053l-1.6 2.336zm2.666-3.887c-.004.002-.009.003-.013.005-.007.003-.766.342-2.027.326-.458-.005-.793-.092-1.181-.192-.445-.115-.949-.246-1.665-.254-.81-.007-1.55.202-2.039.384L3.085 2.455h11.828l-2.359 3.488zM11.05 4.745c-.134-.134-.212-.321-.212-.515 0-.191.078-.378.212-.515.135-.134.322-.212.516-.212.191 0 .38.078.516.212.135.136.213.323.213.515 0 .193-.078.38-.213.515-.136.134-.324.213-.516.213-.191 0-.379-.079-.516-.213z"/></svg>