<svg xmlns="http://www.w3.org/2000/svg" viewBox="0 0 17 15"><path d="M15.785 3.753c-.122-.122-.288-.153-.46-.153h-3.413V1.65c0-.359-.322-.65-.681-.65H5.769c-.359 0-.682.291-.682.65V3.6H1.675c-.359 0-.65.216-.65.574v9.175c0 .359.291.65.65.65h13.646c.358 0 .649-.291.649-.649l.005-9.156c0-.172-.068-.319-.19-.441zM6.387 2.3h4.225v1.3H6.387V2.3zm8.288 2.601l-.002 3.412h-4.549v-.236c0-.269-.26-.414-.529-.414h-2.19c-.269 0-.53.145-.53.414v.236H2.324V4.901h12.351zM9.15 8.637v.326h-1.3v-.326h1.3zm-6.826 4.064V9.288h4.551v.161c0 .269.261.489.53.489h2.19c.269 0 .529-.22.529-.489v-.161h4.549l-.002 3.413H2.324z"/></svg>