<svg xmlns="http://www.w3.org/2000/svg" viewBox="0 0 26 24"><path d="M23.861 7.185l-4.982-4.982C18.104 1.427 17.072 1 15.976 1H3.369C2.028 1 .937 2.09.937 3.431v13.963c0 1.341 1.091 2.432 2.432 2.432h2.999v1.976c0 .481.286.913.728 1.102.434.184.955.09 1.297-.236l1.209-1.156 1.208 1.156c.224.214.518.332.828.332.163 0 .321-.032.471-.097.443-.188.728-.62.728-1.101v-5.67c1.335-.992 2.204-2.576 2.204-4.363 0-2.999-2.44-5.439-5.439-5.439s-5.44 2.44-5.44 5.439c0 1.787.871 3.371 2.205 4.363v2.055H3.368c-.437 0-.792-.355-.792-.792V3.432c0-.436.355-.792.792-.792h12.607c.185 0 .365.025.542.064v4.994c0 1.02.829 1.849 1.849 1.849h4.993c.039.176.064.356.064.542v7.306c0 .437-.356.792-.792.792h-7.339c-.453 0-.819.367-.819.82s.366.82.819.82h7.339c1.341 0 2.432-1.091 2.432-2.432v-7.306c.001-1.098-.426-2.129-1.202-2.904zM9.602 7.97c2.095 0 3.799 1.705 3.799 3.799 0 2.096-1.705 3.8-3.799 3.8-2.096 0-3.799-1.705-3.799-3.8C5.802 9.675 7.506 7.97 9.602 7.97zm0 9.237c.554 0 1.09-.084 1.595-.239v3.8l-.685-.655c-.493-.471-1.328-.471-1.821.001l-.684.654v-3.8c.504.155 1.04.239 1.595.239zm8.554-9.51V3.798l4.109 4.109h-3.898c-.116 0-.211-.095-.211-.21z"/></svg>