<svg xmlns="http://www.w3.org/2000/svg" viewBox="0 0 22 22"><path d="M11 1C5.486 1 1.001 5.486 1.001 11.001 1.001 16.514 5.486 21 11 21s10-4.486 10-9.999C21 5.486 16.514 1 11 1zm.798 18.221c-.048.005-.146.008-.146.011v-4.708c1.087-.012 2.163-.053 3.079-.11-.825 2.532-2.351 4.228-2.933 4.807zm-1.597 0c-.583-.581-2.109-2.277-2.934-4.812.923.059 1.993.101 3.08.113v4.709c0-.002-.097-.005-.146-.01zm-7.462-8.22c0-.554.056-1.095.16-1.618.477-.083 1.394-.225 2.683-.351-.104.625-.164 1.281-.164 1.969s.057 1.341.156 1.962c-1.271-.125-2.193-.265-2.675-.346-.104-.523-.16-1.064-.16-1.616zm3.983 0c0-.732.079-1.426.212-2.082.994-.07 2.109-.123 3.413-.136v4.436c-1.304-.014-2.418-.069-3.424-.141-.126-.652-.201-1.345-.201-2.077zm5.067-8.223c.581.597 2.095 2.32 2.926 4.813-.919-.059-1.976-.101-3.063-.113v-4.71c0 .004.092.006.137.01zm-1.442-.01v4.709c-1.087.012-2.146.052-3.058.108.832-2.483 2.344-4.209 2.923-4.808.045-.003.135-.005.135-.009zm1.305 10.452V8.782c1.305.014 2.413.068 3.416.141.132.654.21 1.347.21 2.077 0 .735-.076 1.429-.203 2.081-.996.072-2.118.125-3.423.139zm4.767-4.182c1.274.126 2.199.266 2.682.347.104.522.16 1.063.16 1.616 0 .554-.056 1.094-.16 1.618-.475.083-1.39.225-2.677.35.1-.623.158-1.278.158-1.968 0-.685-.06-1.34-.163-1.963zm2.274-1.039c-.616-.092-1.488-.204-2.576-.302-.532-1.869-1.426-3.373-2.204-4.425 2.185.826 3.93 2.554 4.78 4.727zM8.087 3.271c-.777 1.05-1.67 2.554-2.202 4.419-1.097.097-1.964.21-2.576.303.852-2.17 2.594-3.896 4.778-4.722zm-4.78 10.731c.613.091 1.479.203 2.559.3.516 1.876 1.395 3.365 2.171 4.406-2.162-.833-3.887-2.55-4.73-4.706zm10.656 4.707c.775-1.04 1.652-2.527 2.169-4.4 1.089-.096 1.95-.208 2.559-.301-.844 2.153-2.568 3.868-4.728 4.701z"/></svg>