<svg xmlns="http://www.w3.org/2000/svg" viewBox="0 0 24 24"><path d="M9.876 10.219l1.241.414c.284.095.582.144.883.144s.599-.049.884-.144l1.239-.413c.29-.097.538-.279.716-.527.179-.248.273-.54.273-.845v-.165c0-.285-.079-.564-.229-.806-.143-.232-.349-.419-.592-.547.002-.028.012-.055.012-.084V5.99c0-.606-.491-1.097-1.097-1.097-.605 0-1.096.491-1.096 1.097v.655h-.22V5.99c0-.606-.491-1.097-1.096-1.097-.606 0-1.097.491-1.097 1.097v1.256c0 .03.005.058.008.087-.241.128-.446.314-.59.547-.148.239-.227.517-.227.803v.165c0 .305.094.597.272.845.179.247.426.43.716.526zm.122-1.536c0-.076.02-.153.063-.221.042-.07.102-.122.169-.156l.907-.453c.063-.031.13-.056.201-.073.072-.017.143-.025.213-.025h.898c.07 0 .141.008.212.025.072.017.139.042.201.073l.907.453c.068.034.127.086.17.156.043.068.063.145.063.221v.165c0 .068-.021.136-.064.196s-.102.101-.166.123l-1.241.413c-.167.056-.345.086-.531.086s-.365-.03-.532-.086l-1.24-.413c-.065-.022-.124-.063-.167-.123-.042-.06-.063-.128-.063-.196v-.165zm12.227 10.966l.314-.436c.401-.558.438-1.302.096-1.895-.312-.54-.892-.874-1.514-.874-.058 0-.117.003-.176.009l-.534.053c-.062-.36-.245-.679-.5-.933-.036-.094-.071-.189-.114-.281l-2.429-5.176c-.253-.539-.446-1.107-.576-1.688-.129-.58-.195-1.177-.195-1.772V4.893c0-1.171-.456-2.273-1.285-3.101C14.484.963 13.383.507 12.211.507h-.422c-1.172 0-2.274.456-3.102 1.285-.828.828-1.284 1.93-1.284 3.101v1.763c0 .595-.066 1.191-.195 1.772-.13.582-.324 1.15-.577 1.688l-2.428 5.176c-.043.092-.078.187-.114.281-.255.254-.439.573-.5.934l-.536-.054c-.057-.006-.116-.009-.175-.009-.621 0-1.201.334-1.513.873-.342.594-.305 1.338.094 1.895l.316.437c-.473.393-.712 1.014-.606 1.637.125.735.704 1.311 1.44 1.431l4.533.742c.137.022.279.034.418.034.833 0 1.611-.405 2.096-1.069.48.078.963.132 1.451.132h1.786c.488 0 .971-.054 1.45-.132.486.664 1.264 1.069 2.096 1.069.14 0 .281-.012.419-.035l4.532-.74c.737-.121 1.316-.697 1.441-1.433.106-.622-.133-1.243-.606-1.636zM7.766 10.648c.286-.61.512-1.261.665-1.947.153-.686.225-1.371.225-2.045V4.893c0-.802.306-1.603.917-2.215.612-.612 1.414-.918 2.216-.918h.422c.802 0 1.604.306 2.215.918.612.612.918 1.413.918 2.215v1.763c0 .674.072 1.359.225 2.045.153.686.379 1.337.665 1.947l2.087 4.448c-.384.082-.731.289-.985.6l-.535.654-.218-1.207c-.183-1.009-.717-1.927-1.505-2.585-.787-.658-1.785-1.02-2.811-1.02h-.534c-1.026 0-2.025.362-2.811 1.02-.788.658-1.322 1.576-1.505 2.585l-.218 1.207-.535-.654c-.254-.311-.601-.518-.985-.6l2.087-4.448zm1.083 10.991c-.275.477-.775.743-1.289.743-.079 0-.159-.006-.239-.019l-4.532-.741c-.261-.043-.479-.247-.525-.523-.047-.276.091-.54.323-.666l-.042.023c.207-.113.366-.31.423-.557.056-.248-.002-.495-.139-.686l-.468-.649c-.142-.197-.164-.467-.034-.691.118-.205.332-.319.551-.319.022 0 .043.001.064.003l.796.08c.029.003.057.005.086.005.207 0 .414-.075.577-.227.187-.173.278-.41.272-.645l.001.049c-.007-.265.153-.516.415-.613.074-.028.149-.041.223-.041.19 0 .372.086.493.234l2.907 3.554c.381.465.455 1.135.137 1.686zm5.579-2.389c-.459.562-.645 1.284-.556 1.98-.328.043-.654.073-.979.073h-1.786c-.325 0-.652-.03-.979-.073.089-.696-.097-1.418-.556-1.98l-1.33-1.626.408-2.257c.131-.722.512-1.378 1.075-1.847.562-.47 1.275-.729 2.008-.729h.534c.733 0 1.446.259 2.008.729.563.469.944 1.125 1.075 1.846l.408 2.258-1.33 1.626zm6.604.649c.057.247.216.444.423.557l-.043-.023c.233.126.371.39.324.666-.046.276-.264.48-.525.523l-4.532.741c-.08.013-.16.019-.24.019-.514 0-1.013-.266-1.288-.743-.318-.551-.244-1.221.136-1.686l2.908-3.554c.121-.148.303-.234.493-.234.074 0 .149.013.222.041.263.097.423.348.416.613l.001-.049c-.006.235.085.472.271.645.164.152.371.227.578.227.028 0 .057-.002.086-.005l.795-.08c.022-.002.043-.003.064-.003.22 0 .434.114.552.319.129.224.107.494-.034.691l-.468.649c-.137.191-.195.438-.139.686z"/></svg>