<svg xmlns="http://www.w3.org/2000/svg" viewBox="0 0 22 22"><path d="M1.815 17.485c-.25 0-.494-.051-.725-.152C.428 17.045 0 16.391 0 15.669V6.327c0-.721.427-1.375 1.089-1.664.225-.098.467-.148.719-.148.461 0 .915.175 1.243.481L7.66 9.274c.478.443.751 1.072.751 1.724 0 .652-.274 1.281-.751 1.724L3.051 17c-.337.312-.776.485-1.236.485zm-.129-1.519l4.826-4.48c.135-.124.213-.302.213-.488s-.078-.364-.214-.489L1.686 6.03v9.936zm9.902.83c-.465 0-.844-.379-.844-.844 0-.464.379-.843.844-.843h9.569c.465 0 .843.379.843.843 0 .465-.378.844-.843.844h-9.569zm0-4.955c-.465 0-.844-.378-.844-.843 0-.465.379-.843.844-.843h9.569c.465 0 .843.378.843.843 0 .465-.378.843-.843.843h-9.569zm0-4.954c-.465 0-.844-.379-.844-.844 0-.464.379-.843.844-.843h9.569c.465 0 .843.379.843.843 0 .465-.378.844-.843.844h-9.569z"/></svg>