<svg xmlns="http://www.w3.org/2000/svg" viewBox="0 0 16 16"><path d="M15.639,13.535 L11.813,9.709 C12.389,8.762 12.722,7.649 12.722,6.458 C12.722,2.999 9.724,0.002 6.265,0.002 C2.806,0.002 0.002,2.806 0.002,6.265 C0.002,9.725 2.999,12.722 6.458,12.722 C7.608,12.722 8.685,12.410 9.611,11.869 L13.458,15.716 C13.834,16.092 14.445,16.092 14.821,15.716 L15.775,14.762 C16.151,14.386 16.015,13.912 15.639,13.535 ZM1.929,6.265 C1.929,3.870 3.871,1.929 6.265,1.929 C8.660,1.929 10.794,4.063 10.794,6.458 C10.794,8.852 8.853,10.794 6.458,10.794 C4.063,10.794 1.929,8.661 1.929,6.265 Z"/></svg>
