<svg xmlns="http://www.w3.org/2000/svg" viewBox="0 0 24 26"><path d="M21.914 19.665c-1.756 0-2.435-1.03-2.435-7.411 0-5.004-2.268-8.148-6.182-8.614V2.045c0-.577-.466-1.045-1.043-1.045-.576 0-1.044.468-1.044 1.045v1.564c-4.174.34-6.591 3.515-6.591 8.645 0 6.381-.762 7.411-2.517 7.411-.577 0-1.059.404-1.059.98 0 .577.454.98 1.031.98h6.785c.081.783.316 1.745.95 2.439.541.591 1.28.936 2.138.936.851 0 1.593-.358 2.146-.941.658-.695.919-1.65 1.02-2.434h6.801c.576 0 1.044-.403 1.044-.98 0-.576-.468-.98-1.044-.98zm-9.34 2.975c-.106.111-.272.27-.627.27-.346 0-.5-.168-.595-.272-.205-.222-.322-.491-.384-1.013h.876c.051 0 .101-.003.15-.01.049.007.099.01.149.01h.851c-.074.523-.202.787-.42 1.015zm-.432-3.102c-.05 0-.1.004-.149.011-.049-.007-.099-.011-.15-.011H5.677c.975-1.826.975-4.667.975-7.326 0-4.248 1.844-6.501 5.192-6.501h.299c3.349 0 5.193 2.254 5.193 6.501 0 2.658 0 5.5.974 7.326h-6.168zm3.725-9.256c.03.503-.355.936-.858.966-.019.001-.037.002-.055.002-.481 0-.882-.375-.911-.86-.069-1.165-.989-1.595-1.093-1.641-.46-.199-.678-.732-.486-1.194.193-.462.714-.684 1.179-.498.085.034 2.084.866 2.224 3.225z"/></svg>