<svg xmlns="http://www.w3.org/2000/svg" viewBox="0 0 26 24"><path d="M24.103 2.614c-.6-.466-1.397-.631-2.117-.445L16.5 3.47C15.891 2.021 14.458 1 12.79 1H4.96C2.743 1 .938 2.804.938 5.022v13.956C.938 21.195 2.743 23 4.96 23h7.83c1.503 0 2.814-.83 3.504-2.054l5.677 1.503c.201.051.407.076.612.076.544 0 1.085-.179 1.521-.517.601-.464.959-1.195.959-1.956V4.569c-.001-.77-.35-1.484-.96-1.955zm-.676 17.438c0 .258-.122.506-.325.664-.204.158-.474.212-.718.151l-5.591-1.48c.013-.135.02-.271.02-.409v-.941l4.257.862c.054.01.108.016.163.016.381 0 .722-.268.801-.656.089-.443-.197-.874-.64-.963l-4.581-.927v-.915l4.323.506c.032.003.065.005.096.005.409 0 .762-.306.811-.722.053-.449-.268-.855-.716-.907l-4.514-.528V11.87h-1.635v7.108c0 1.316-1.071 2.387-2.387 2.387H4.96c-1.316 0-2.387-1.071-2.387-2.387V5.022c0-1.316 1.071-2.388 2.387-2.388h7.83c1.316 0 2.387 1.072 2.387 2.388v1.944h1.635v-1.89l5.566-1.32c.25-.064.52-.008.723.15.207.161.325.402.325.663v15.483zM6.752 12.697c.184.08.379.121.578.121.367 0 .716-.138.984-.386l2.979-2.765c.365-.339.574-.818.574-1.315 0-.496-.209-.975-.574-1.314L8.314 4.272c-.415-.386-1.041-.492-1.562-.265-.527.23-.868.75-.868 1.325v6.039c0 .575.341 1.096.868 1.326zm.766-6.933l2.662 2.471c.033.03.051.072.051.116 0 .044-.018.086-.05.117l-2.663 2.47V5.764zm4.45 8.517H5.782c-.451 0-.817.366-.817.817 0 .452.366.818.817.818h6.187c.451 0 .818-.366.818-.818-.001-.452-.368-.817-.819-.817zm0 3.102H5.782c-.451 0-.817.367-.817.818 0 .452.366.818.817.818h6.187c.451 0 .818-.366.818-.818-.001-.452-.368-.818-.819-.818zm9.45-8.783h-1.952V6.647c0-.451-.367-.818-.818-.818-.452 0-.818.367-.818.818V8.6h-1.954c-.451 0-.817.367-.817.818 0 .452.366.818.817.818h1.954v1.953c0 .452.366.818.818.818.451 0 .818-.366.818-.818v-1.953h1.952c.452 0 .819-.366.819-.818 0-.451-.367-.818-.819-.818z"/></svg>