<svg xmlns="http://www.w3.org/2000/svg" viewBox="0 0 27 23"><path d="M7.875 5.811c.41.11.83-.133.94-.543l.531-1.983c.041-.154.141-.282.278-.362.139-.08.299-.102.454-.061l5.843 1.566c0-.019-.003-.038-.003-.059 0-.514.09-1.005.249-1.465L10.476 1.38c-.551-.148-1.126-.072-1.619.213-.493.285-.846.745-.994 1.295l-.531 1.983c-.11.409.133.831.543.94zm16.954-.396c-.14.59-.395 1.134-.741 1.61.006.068.006.138-.013.207l-3.052 11.387c-.109.41.133.831.543.94.067.018.133.026.2.026.339 0 .648-.226.741-.569l3.051-11.387c.225-.841-.09-1.702-.729-2.214zm-3.624-.277h1.834c.424 0 .767-.343.767-.767s-.344-.767-.767-.767h-1.834V1.768c0-.424-.344-.768-.768-.768-.425 0-.768.344-.768.768v1.834h-1.834c-.424 0-.767.344-.767.767 0 .425.344.767.767.767h1.834v1.835c0 .424.344.767.768.767.424 0 .767-.344.767-.767V5.138zm-3.649 2.173H3.502c-1.176 0-2.132.957-2.132 2.132v10.424c0 1.176.956 2.133 2.132 2.133h14.054c1.176 0 2.132-.957 2.132-2.132V9.444c0-1.176-.956-2.133-2.132-2.133zm.597 12.557c0 .33-.269.598-.598.598H3.502c-.329 0-.598-.268-.598-.598v-4.072l3.078-2.361c.238-.183.57-.2.826-.044l4.421 2.694c.799.486 1.796.438 2.543-.124l.78-.585c.261-.196.625-.195.884.003l2.718 2.071v2.418zm0-4.351l-1.788-1.361c-.803-.613-1.928-.616-2.736-.009l-.781.585c-.241.182-.563.197-.82.04l-4.421-2.694c-.794-.483-1.823-.429-2.561.138L2.905 13.86V9.444c0-.33.269-.598.598-.598h14.054c.329 0 .598.268.598.598v6.073zm-5.863-5.234c-.783 0-1.418.634-1.418 1.417 0 .782.635 1.417 1.418 1.417.782 0 1.417-.635 1.417-1.417-.001-.783-.636-1.417-1.417-1.417z"/></svg>