<svg xmlns="http://www.w3.org/2000/svg" viewBox="0 0 32 20"><path d="M24.745 3.117l-6.319 13.62c-.557 1.398-1.528 2.23-2.604 2.23-.873 0-1.641-.444-2.054-1.188-.464-.834-.414-1.894.13-2.767l8.268-13.288c.41-.658 1.262-.884 1.944-.515.683.369.961 1.205.635 1.908zm2.212 3.964c-.487-.531-1.313-.565-1.844-.077-.53.487-.565 1.313-.076 1.843 2.163 2.353 3.354 5.426 3.354 8.654 0 .72.585 1.305 1.305 1.305S31 18.22 31 17.5c0-3.883-1.436-7.584-4.043-10.419zM17.05 4.898c.722.065 1.35-.471 1.412-1.188.061-.718-.472-1.349-1.189-1.411-.421-.037-.849-.054-1.273-.054-8.271 0-15 6.843-15 15.255 0 .72.584 1.305 1.304 1.305s1.304-.585 1.304-1.305C3.608 10.527 9.167 4.853 16 4.853c.35 0 .703.015 1.05.045z"/></svg>