<svg xmlns="http://www.w3.org/2000/svg" viewBox="0 0 34 28"><path d="M28.225.938H5.777C3.143.938 1 3.081 1 5.714v16.573c0 2.633 2.143 4.775 4.777 4.775h22.447c2.633 0 4.775-2.142 4.775-4.775V5.714C33 3.081 30.858.938 28.225.938zm2.834 21.349c0 1.563-1.271 2.834-2.834 2.834H5.777c-1.564 0-2.835-1.271-2.835-2.834V5.714c0-1.563 1.271-2.835 2.835-2.835h22.447c1.563 0 2.834 1.272 2.834 2.835v16.573zm-15.473-5.983c.435 0 .85-.162 1.169-.459l3.537-3.283c.432-.402.681-.971.681-1.562 0-.591-.249-1.159-.681-1.561l-3.538-3.284c-.492-.458-1.235-.586-1.855-.316-.626.274-1.031.892-1.031 1.574v7.172c0 .683.406 1.301 1.031 1.574.218.097.45.145.687.145zm.224-8.375l3.161 2.935c.039.035.061.085.061.137 0 .053-.022.102-.061.138l-3.161 2.934V7.929zM8.008 19.941c-.537 0-.971.435-.971.971 0 .537.434.971.971.971h1.257c-.11-.304-.18-.628-.18-.971 0-.342.07-.666.181-.971H8.008zm17.986 0H14.659c.11.305.18.629.18.971 0 .343-.07.667-.18.971h11.335c.536 0 .971-.434.971-.971 0-.536-.435-.971-.971-.971zm-14.032-.827c-.993 0-1.799.805-1.799 1.798s.806 1.799 1.799 1.799 1.799-.806 1.799-1.799c0-.993-.805-1.798-1.799-1.798z"/></svg>