<svg xmlns="http://www.w3.org/2000/svg" viewBox="0 0 33 28"><path d="M14.459 14.824c.217.095.447.143.684.143.434 0 .846-.163 1.163-.456l3.52-3.268c.431-.4.678-.966.678-1.555 0-.587-.247-1.153-.678-1.554l-3.521-3.268c-.489-.455-1.229-.583-1.846-.313-.623.272-1.025.887-1.025 1.566v7.138c0 .681.403 1.296 1.025 1.567zm.907-8.193l3.146 2.921c.038.035.061.084.061.136 0 .053-.023.102-.06.137l-3.147 2.921V6.631zm15.695-1.934c-.704-.545-1.657-.743-2.521-.521l-2.743.707C25.386 2.677 23.45 1 21.127 1h-9.253C9.55 1 7.614 2.677 7.203 4.883l-2.744-.707c-.863-.223-1.815-.026-2.52.521C1.23 5.247.807 6.111.807 7.008v13.986c0 .897.423 1.762 1.132 2.311.51.396 1.147.613 1.792.613.246 0 .491-.031.729-.093l2.743-.706C7.614 25.324 9.55 27 11.873 27h9.253c2.324 0 4.26-1.676 4.671-3.882l2.742.706c.239.062.485.093.73.093.645 0 1.281-.217 1.791-.612.71-.55 1.133-1.414 1.133-2.312V7.008c0-.897-.422-1.762-1.132-2.311zM7.119 14.186l-1.808.044c-.534.013-.955.455-.943.989.012.525.442.944.965.944h.025l1.763-.041v1.206l-1.981.408c-.522.108-.858.619-.75 1.143.094.456.497.771.946.771.065 0 .13-.006.196-.021l1.591-.329v1.844l-3.143.809c-.293.076-.616.009-.855-.176-.242-.187-.385-.48-.385-.784V7.008c0-.304.143-.597.384-.784.172-.133.387-.208.606-.208.083 0 .167.011.247.031l3.142.81v7.329zm16.829 8.062c0 1.556-1.265 2.821-2.822 2.821h-9.253c-1.556 0-2.822-1.265-2.822-2.821V5.753c0-1.556 1.266-2.821 2.822-2.821h9.253c1.557 0 2.822 1.265 2.822 2.821v16.495zm6.313-1.255c0 .304-.143.597-.384.784-.238.185-.56.252-.854.176l-3.142-.809V19.3l1.591.329c.066.014.131.021.197.021.448 0 .85-.314.946-.771.107-.523-.23-1.034-.751-1.143l-1.981-.408v-1.206l1.764.041h.024c.523 0 .953-.418.965-.944.012-.534-.409-.976-.944-.989l-1.809-.043V6.858l3.142-.81c.293-.074.616-.008.854.177.241.186.384.48.384.784l-.002 13.984zm-10.105-4.297h-7.312c-.534 0-.965.433-.965.965 0 .535.433.966.965.966h7.312c.534 0 .965-.433.965-.966.001-.533-.432-.965-.965-.965zm0 3.667h-7.312c-.534 0-.965.433-.965.965 0 .535.433.966.965.966h7.312c.534 0 .965-.433.965-.966.001-.533-.432-.965-.965-.965z"/></svg>