<svg xmlns="http://www.w3.org/2000/svg" viewBox="0 0 16 22"><path d="M15 3.227c0-1.32-1.081-2.393-2.408-2.393-1.328 0-2.407 1.074-2.407 2.393 0 .999.621 1.857 1.499 2.214-.025.396-.274 2.931-3.807 4.218-1.637.595-2.84 1.385-3.517 2.201V5.442c.904-.357 1.453-1.215 1.453-2.215 0-1.32-1.104-2.393-2.432-2.393-1.327 0-2.368 1.074-2.368 2.393 0 1 .635 1.858 1.539 2.215v11.117C1.648 16.916 1 17.774 1 18.774c0 1.32 1.055 2.392 2.383 2.392s2.442-1.073 2.442-2.392c0-1-.562-1.858-1.466-2.215v-.724c0-.254.106-3.01 4.139-4.479 4.785-1.742 5.011-5.462 5.023-5.915C14.402 5.086 15 4.227 15 3.227zM3.357 2.189c.578 0 1.047.465 1.047 1.037 0 .572-.47 1.036-1.047 1.036s-1.048-.463-1.048-1.035c0-.573.471-1.038 1.048-1.038zm0 17.623c-.578 0-1.048-.466-1.048-1.037 0-.572.471-1.037 1.048-1.037s1.047.466 1.047 1.037-.469 1.037-1.047 1.037zm9.235-15.549c-.578 0-1.047-.465-1.047-1.036 0-.573.47-1.037 1.047-1.037.579 0 1.048.465 1.048 1.037 0 .572-.47 1.036-1.048 1.036z"/></svg>