<svg xmlns="http://www.w3.org/2000/svg" viewBox="0 0 16 16"><path d="M8.096 7.434V5.671c0-.324-.262-.586-.586-.586-.323 0-.585.262-.585.586v1.763c-.373.208-.627.6-.627 1.056 0 .669.543 1.212 1.212 1.212S8.723 9.16 8.723 8.49c0-.457-.255-.849-.627-1.056zm6.63-4.276l-1.883-1.883c-.366-.366-.958-.366-1.324 0s-.366.958 0 1.324l.28.28-.401.4C10.312 2.467 8.969 1.98 7.511 1.98 3.921 1.979 1 4.9 1 8.49 1 12.079 3.921 15 7.511 15s6.511-2.921 6.511-6.51c0-1.458-.488-2.801-1.3-3.887l.401-.401.28.28c.366.366.958.366 1.324 0s.364-.958-.001-1.324zm-7.215 9.969c-2.557 0-4.637-2.08-4.637-4.637 0-2.558 2.08-4.638 4.637-4.638 2.558 0 4.638 2.08 4.638 4.638 0 2.557-2.08 4.637-4.638 4.637z"/></svg>