<svg xmlns="http://www.w3.org/2000/svg" viewBox="0 0 20 18"><path d="M14.038 13.039c-1.079 1.078-2.513 1.672-4.038 1.672-2.563 0-4.737-1.697-5.456-4.027l1.984.988c.49.244 1.086.044 1.33-.446.244-.489.044-1.085-.446-1.329L3.529 7.963c-.49-.244-1.085-.044-1.33.445L.104 12.615c-.244.49-.045 1.086.445 1.33.142.071.292.104.441.104.364 0 .715-.201.889-.549l.913-1.833C3.88 14.596 6.695 16.693 10 16.693c2.055 0 3.987-.8 5.44-2.253.387-.387.387-1.016 0-1.403s-1.015-.387-1.402.002zm5.412-8.983c-.49-.245-1.086-.045-1.33.445l-.913 1.833C16.12 3.404 13.304 1.307 10 1.307c-2.056 0-3.987.801-5.44 2.254-.387.387-.387 1.016 0 1.402.387.387 1.015.388 1.402 0C7.041 3.885 8.475 3.29 10 3.29c2.563 0 4.737 1.698 5.456 4.028l-1.984-.989c-.49-.244-1.086-.044-1.33.446s-.044 1.085.445 1.329l3.883 1.934c.138.069.29.104.442.104.106 0 .212-.017.315-.052.249-.083.454-.262.572-.497l2.095-4.208c.246-.491.047-1.085-.444-1.329z"/></svg>