<svg xmlns="http://www.w3.org/2000/svg" viewBox="0 0 45 37"><path d="M37.537 36H7.463c-3.528 0-6.399-2.87-6.399-6.399V7.398C1.064 3.87 3.935 1 7.463 1h30.074c3.529 0 6.399 2.87 6.399 6.398v22.203c0 3.529-2.87 6.399-6.399 6.399zm3.798-28.602c0-2.093-1.704-3.798-3.798-3.798H7.463c-2.094 0-3.797 1.705-3.797 3.798v22.203c0 2.094 1.703 3.799 3.797 3.799h30.074c2.094 0 3.798-1.705 3.798-3.799V7.398zM34.55 29.06H19.364c.147-.408.241-.842.241-1.3 0-.459-.094-.893-.242-1.301H34.55c.718 0 1.301.582 1.301 1.3 0 .719-.584 1.301-1.301 1.301zm-2.59-12.192c-.698-1.085-1.571-2.01-2.552-2.779-.056 3.762-3.131 6.807-6.907 6.807-.184 0-.363-.013-.542-.028l1.322-2.652c2.006-.369 3.531-2.123 3.531-4.234 0-.536-.098-1.053-.287-1.544-.103-.04-.209-.068-.313-.104l1.171-2.348c2.739 1.033 5.121 2.918 6.764 5.474.388.604.214 1.409-.389 1.797-.605.391-1.41.215-1.798-.389zm-11.871 5.615c-.228.457-.687.721-1.165.721-.195 0-.393-.044-.579-.137-.642-.321-.904-1.101-.584-1.745l.826-1.655c-1.779-1.229-2.958-3.266-2.993-5.579-.981.77-1.854 1.694-2.552 2.78-.249.386-.668.598-1.095.598-.241 0-.484-.066-.703-.207-.604-.387-.779-1.193-.391-1.797 2.566-3.991 6.92-6.373 11.647-6.373.445 0 .883.033 1.318.081l1.122-2.25c.32-.643 1.1-.905 1.745-.584.642.321.904 1.102.584 1.745l-7.18 14.402zm2.412-10.794c-1.401 0-2.759.264-4.024.749-.189.49-.287 1.008-.287 1.545 0 1.337.623 2.516 1.582 3.304l2.789-5.595c-.021 0-.04-.003-.06-.003zM11.895 27.76c0 .458.094.892.242 1.3h-1.685c-.718 0-1.3-.582-1.3-1.301 0-.718.582-1.3 1.3-1.3h1.685c-.148.408-.242.842-.242 1.301zm3.856-2.41c1.331 0 2.409 1.079 2.409 2.409 0 1.332-1.079 2.41-2.409 2.41s-2.41-1.079-2.41-2.41c-.001-1.33 1.079-2.409 2.41-2.409z"/></svg>