<svg xmlns="http://www.w3.org/2000/svg" viewBox="0 0 45 37"><path d="M37.538 36H7.462c-3.528 0-6.398-2.87-6.398-6.399V7.398C1.064 3.87 3.934 1 7.462 1h30.075c3.528 0 6.398 2.87 6.398 6.398v22.203C43.936 33.13 41.066 36 37.538 36zm3.797-28.602c0-2.093-1.704-3.798-3.797-3.798H7.462c-2.093 0-3.797 1.705-3.797 3.798v22.203c0 2.094 1.704 3.798 3.797 3.798h30.075c2.093 0 3.797-1.704 3.797-3.798V7.398zM34.549 29.06H19.364c.147-.408.241-.842.241-1.3 0-.459-.094-.893-.241-1.302h15.185c.718 0 1.3.583 1.3 1.301 0 .719-.582 1.301-1.3 1.301zm-6.581-10.825c.508.508.508 1.332-.001 1.839-.254.254-.586.381-.919.381-.333 0-.667-.127-.921-.381l-3.151-3.151c-.264-.264-.691-.264-.954 0l-3.152 3.151c-.254.254-.586.381-.92.381-.332 0-.666-.127-.92-.381-.508-.508-.508-1.332 0-1.839l3.152-3.152c.263-.263.263-.69 0-.954l-3.152-3.151c-.508-.508-.508-1.332 0-1.839.508-.508 1.332-.508 1.839 0l3.152 3.151c.263.264.69.264.954 0l3.151-3.151c.509-.508 1.332-.508 1.839 0 .509.508.509 1.332.001 1.839l-3.152 3.151c-.264.264-.264.691 0 .954l3.154 3.152zm-9.809 9.524c0 1.332-1.079 2.41-2.409 2.41-1.332 0-2.41-1.079-2.41-2.41 0-1.331 1.079-2.409 2.41-2.409 1.331 0 2.409 1.079 2.409 2.409zm-7.708 1.301c-.718 0-1.3-.582-1.3-1.301 0-.718.582-1.301 1.3-1.301h1.685c-.148.409-.242.843-.242 1.302 0 .458.094.892.242 1.3h-1.685z"/></svg>