<svg xmlns="http://www.w3.org/2000/svg" viewBox="0 0 45 37"><path d="M37.537 1H7.464C3.935 1 1.065 3.871 1.065 7.399v22.202c0 3.528 2.87 6.399 6.399 6.399h30.073c3.528 0 6.398-2.871 6.398-6.399V7.399c0-3.528-2.87-6.399-6.398-6.399zm3.798 28.601c0 2.094-1.704 3.798-3.798 3.798H7.464c-2.094 0-3.798-1.704-3.798-3.798V7.399c0-2.094 1.704-3.798 3.798-3.798h30.073c2.094 0 3.798 1.704 3.798 3.798v22.202zm-30.883-3.142c-.719 0-1.301.582-1.301 1.301 0 .718.582 1.3 1.301 1.3h1.684c-.147-.408-.241-.842-.241-1.3 0-.459.094-.892.241-1.301h-1.684zm24.097 0H19.364c.147.409.242.842.242 1.301 0 .458-.095.892-.242 1.3h15.185c.719 0 1.301-.582 1.301-1.3 0-.719-.582-1.301-1.301-1.301zM15.75 25.35c-1.331 0-2.409 1.079-2.409 2.409 0 1.331 1.079 2.409 2.409 2.409 1.331 0 2.41-1.079 2.41-2.409.001-1.33-1.079-2.409-2.41-2.409zm10.652-7.369c.36.623 1.156.836 1.777.475.622-.36.835-1.155.475-1.777-1.267-2.19-3.626-3.551-6.154-3.551-2.53 0-4.887 1.361-6.153 3.553-.36.622-.148 1.417.475 1.777.205.118.428.174.648.174.45 0 .887-.232 1.128-.651.803-1.39 2.299-2.253 3.902-2.253 1.603 0 3.099.864 3.902 2.253zM14.51 13.542c.332 0 .666-.127.92-.381 1.888-1.888 4.4-2.928 7.07-2.928 2.663 0 5.169 1.035 7.057 2.914.509.508 1.332.506 1.839-.003.507-.51.505-1.333-.004-1.839-2.378-2.369-5.535-3.673-8.892-3.673-3.366 0-6.53 1.31-8.909 3.691-.508.508-.508 1.331 0 1.838.254.254.586.381.919.381zm5.815 7.381c0 1.201.974 2.175 2.175 2.175 1.202 0 2.176-.974 2.176-2.175 0-1.202-.974-2.176-2.176-2.176-1.201 0-2.175.974-2.175 2.176z"/></svg>