<svg xmlns="http://www.w3.org/2000/svg" viewBox="0 0 19 25"><path d="M17.715 6.632L12.17 1.058c-.187-.189-.443-.295-.709-.295H1.995c-.553 0-1.001.448-1.001 1.001v20.013c0 .553.448 1.001 1.001 1.001h5.35v-2.001h-4.35V2.765h6.004v5.984c0 .552.425 1.02.978 1.02h6.027v11.008h-4.35v2.001h5.35c.553 0 1.001-.448 1.001-1.001V7.337c.001-.264-.105-.518-.29-.705zM11 7.768V2.765h.045l4.956 5.003H11zm3.186 9.041l-4.687-4.687-4.686 4.686 1.523 1.524 2.086-2.086v7.33c0 .364.296.66.661.66h.833c.365 0 .661-.296.661-.66v-7.33l2.086 2.086 1.523-1.523z"/></svg>