<svg xmlns="http://www.w3.org/2000/svg" viewBox="0 0 50 50"><path fill="#A3B1B6" d="M25 27.081c3.821 0 6.291-2.862 6.291-7.291 0-3.989-.473-7.29-6.291-7.29s-6.291 3.302-6.291 7.29c0 5.375 3.249 7.291 6.291 7.291zm0-12.619c3.762 0 4.33 1.2 4.33 5.328 0 3.336-1.619 5.329-4.33 5.329-2.751 0-4.33-1.943-4.33-5.329 0-4.192.539-5.328 4.33-5.328zm10.679 20.561c-.224-1.401-.871-2.672-1.871-3.677-1-1.006-2.268-1.659-3.63-1.884-.111-.022-2.734-.553-5.178-.553s-5.068.531-5.142.547c-1.399.232-2.666.885-3.667 1.891-1 1.005-1.647 2.276-1.872 3.677l-.347 2.167 1.938.31.346-2.166c.16-.993.618-1.893 1.326-2.605.708-.712 1.606-1.175 2.632-1.346.025-.005 2.543-.514 4.785-.514s4.76.509 4.821.521c.991.164 1.888.627 2.596 1.339s1.167 1.612 1.325 2.604l.347 2.167 1.938-.31-.347-2.168z"/></svg>