<svg xmlns="http://www.w3.org/2000/svg" viewBox="0 0 18 18"><path d="M15.942 16.997c-.329 0-.604-.269-.642-.598-.618-5.323-4.057-6.743-6.466-7.073v2.584c0 .248-.143.475-.366.584s-.489.081-.685-.073L1.249 7.293C1.092 7.17 1 6.981 1 6.781c0-.199.092-.387.249-.511l6.535-5.129c.195-.154.461-.181.684-.073.223.109.366.336.366.584v2.24c3.021.491 5.246 1.733 6.617 3.697 1.536 2.203 1.947 5.307 1.157 8.743l-.022.097c-.03.332-.303.565-.636.569-.002-.001-.005-.001-.008-.001zM8.184 7.959c.014 0 .028 0 .042.001 1.819.117 5.652.861 7.471 4.9-.02-1.491-.337-3.13-1.313-4.528-1.236-1.773-3.35-2.86-6.284-3.234-.322-.041-.565-.318-.565-.645V2.987L2.702 6.781l4.833 3.794V8.609c0-.18.074-.352.206-.474.12-.114.278-.176.443-.176z"/></svg>