<svg xmlns="http://www.w3.org/2000/svg" viewBox="0 0 26 26"><path d="M18.191 7.806c-.574-.574-1.506-.574-2.08 0L13 10.917 9.889 7.806c-.574-.574-1.506-.574-2.08 0-.575.574-.575 1.506 0 2.08l3.111 3.111-3.111 3.111c-.575.574-.575 1.506 0 2.08.287.287.664.431 1.04.431s.753-.144 1.04-.431L13 15.077l3.111 3.111c.287.287.664.431 1.04.431s.753-.144 1.04-.431c.575-.574.575-1.506 0-2.08l-3.111-3.111 3.111-3.111c.575-.574.575-1.506 0-2.08zM13 .997c-6.617 0-12 5.383-12 12s5.383 12 12 12 12-5.383 12-12-5.383-12-12-12zm0 21.058c-4.995 0-9.058-4.064-9.058-9.058S8.006 3.939 13 3.939c4.995 0 9.058 4.064 9.058 9.058S17.995 22.055 13 22.055z"/></svg>